<?xml version="1.0" encoding="UTF-8" standalone="no"?>
<svg
   xmlns:dc="http://purl.org/dc/elements/1.1/"
   xmlns:cc="http://creativecommons.org/ns#"
   xmlns:rdf="http://www.w3.org/1999/02/22-rdf-syntax-ns#"
   xmlns:svg="http://www.w3.org/2000/svg"
   xmlns="http://www.w3.org/2000/svg"
   viewBox="0 0 24 24"
   height="24"
   width="24"
   xml:space="preserve"
   id="svg2"
   version="1.1"><metadata
     id="metadata8"><rdf:RDF><cc:Work
         rdf:about=""><dc:format>image/svg+xml</dc:format><dc:type
           rdf:resource="http://purl.org/dc/dcmitype/StillImage" /></cc:Work></rdf:RDF></metadata><defs
     id="defs6" /><g
     transform="scale(1.3333333)"
     id="g10"><g
       id="g12"><path
         id="path14"
         style="fill:#000000;fill-opacity:1;fill-rule:nonzero;stroke:none"
         d="M 6.973,14.258 C 6.23,14.258 5.004,14.156 4.094,13.27 3.367,12.566 3,11.508 3,10.125 3,5.922 8.395,5.059 9.781,4.906 9.816,4.398 9.789,3.578 9.461,3.195 9.344,3.062 9.195,3 9,3 7.77,3 7.082,4.594 7.078,4.609 7.004,4.777 6.82,4.871 6.645,4.828 L 3.664,4.113 C 3.465,4.066 3.34,3.867 3.383,3.668 3.391,3.633 4.254,0 9,0 c 3.156,0 5.273,2.133 5.273,4.125 v 5.25 c 0,0.914 0.942,1.656 0.954,1.664 0.085,0.066 0.14,0.168 0.148,0.277 0.004,0.106 -0.035,0.215 -0.113,0.289 l -2.282,2.25 c -0.07,0.075 -0.168,0.114 -0.269,0.11 -0.098,-0.004 -0.195,-0.043 -0.266,-0.117 L 10.957,12.309 C 10.465,12.992 9.312,14.25 7.469,14.25 L 7.316,14.254 C 7.219,14.258 7.102,14.258 6.973,14.258 Z M 9,2.25 c 0.414,0 0.766,0.156 1.027,0.457 0.7,0.809 0.496,2.414 0.469,2.598 -0.023,0.175 -0.172,0.308 -0.351,0.32 -0.063,0.004 -6.395,0.41 -6.395,4.5 0,1.172 0.289,2.051 0.863,2.609 0.848,0.821 2.133,0.786 2.684,0.77 L 7.469,13.5 c 2.019,0 3.086,-1.949 3.097,-1.969 0.055,-0.105 0.161,-0.179 0.278,-0.195 0.117,-0.016 0.238,0.023 0.32,0.109 l 1.559,1.61 1.73,-1.703 c -0.371,-0.375 -0.93,-1.09 -0.93,-1.977 V 4.125 C 13.523,2.496 11.707,0.75 9,0.75 5.676,0.75 4.559,2.668 4.23,3.48 L 6.527,4.031 C 6.836,3.457 7.648,2.25 9,2.25 Z" /><path
         id="path16"
         style="fill:#000000;fill-opacity:1;fill-rule:nonzero;stroke:none"
         d="m 8.438,11.25 c -1.153,0 -1.688,-1.117 -1.688,-1.875 0,-1.746 2.953,-2.484 3.289,-2.563 0.113,-0.027 0.231,0 0.32,0.071 0.09,0.07 0.141,0.179 0.141,0.293 v 2.199 c 0,1.172 -0.77,1.875 -2.062,1.875 z M 9.75,7.672 C 8.879,7.953 7.5,8.562 7.5,9.375 7.5,9.598 7.668,10.5 8.438,10.5 9.32,10.5 9.75,10.133 9.75,9.375 Z M 8.625,18 C 2.871,18 0.18,14.25 0.066,14.09 -0.051,13.922 -0.008,13.688 0.16,13.566 c 0.168,-0.117 0.402,-0.074 0.524,0.094 0.023,0.035 2.593,3.59 7.941,3.59 3.937,0 7.219,-2.875 7.25,-2.906 0.156,-0.137 0.395,-0.121 0.531,0.031 0.137,0.156 0.121,0.395 -0.031,0.531 C 16.23,15.031 12.844,18 8.625,18 Z" /><path
         id="path18"
         style="fill:#000000;fill-opacity:1;fill-rule:nonzero;stroke:none"
         d="m 16.875,16.531 c -0.117,0 -0.223,-0.051 -0.297,-0.14 -0.07,-0.094 -0.094,-0.211 -0.066,-0.325 l 0.601,-2.425 -2.398,0.597 c -0.203,0.051 -0.406,-0.07 -0.453,-0.273 -0.051,-0.199 0.07,-0.403 0.273,-0.453 l 3,-0.75 c 0.129,-0.032 0.262,0.004 0.356,0.097 0.093,0.094 0.132,0.227 0.101,0.356 l -0.75,3.031 c -0.043,0.168 -0.195,0.285 -0.367,0.285 z" /></g></g></svg>