<?xml version="1.0" standalone="no"?>
<!DOCTYPE svg PUBLIC "-//W3C//DTD SVG 20010904//EN"
 "http://www.w3.org/TR/2001/REC-SVG-20010904/DTD/svg10.dtd">
<svg version="1.0" xmlns="http://www.w3.org/2000/svg"
 width="512.000000pt" height="512.000000pt" viewBox="0 0 512.000000 512.000000"
 preserveAspectRatio="xMidYMid meet">

<g transform="translate(0.000000,512.000000) scale(0.100000,-0.100000)"
fill="#000000" stroke="none">
<path d="M278 4736 c-104 -37 -191 -118 -231 -216 l-22 -55 0 -1905 0 -1905
22 -55 c31 -76 98 -149 175 -191 l63 -34 2275 0 2275 0 63 34 c77 42 144 115
175 191 l22 55 3 1429 c2 1324 1 1430 -14 1448 -22 23 -66 23 -87 0 -16 -17
-17 -130 -17 -1427 0 -1084 -3 -1417 -12 -1449 -8 -25 -32 -61 -63 -93 -89
-91 134 -83 -2345 -83 -2479 0 -2256 -8 -2345 83 -31 32 -55 68 -63 93 -9 32
-12 461 -12 1910 l0 1869 24 50 c12 28 41 67 64 87 82 74 -102 69 2352 66
2011 -3 2208 -4 2241 -19 56 -26 110 -79 135 -134 23 -49 24 -58 24 -332 l0
-283 -2340 0 c-2327 0 -2340 0 -2360 -20 -24 -24 -25 -48 -4 -78 l15 -22 2385
0 2384 0 21 21 c20 20 20 28 17 357 -3 321 -4 340 -25 392 -33 80 -101 153
-181 192 l-67 33 -2255 2 c-1838 2 -2262 0 -2292 -11z"/>
<path d="M530 4470 c-104 -19 -180 -109 -180 -215 0 -86 57 -171 135 -201 64
-24 151 -16 204 19 111 73 129 235 37 335 -42 47 -128 74 -196 62z m75 -124
c99 -42 72 -186 -35 -186 -84 0 -129 90 -79 154 19 25 49 44 72 45 4 1 23 -6
42 -13z"/>
<path d="M1120 4470 c-101 -19 -180 -113 -180 -215 0 -83 68 -180 145 -205 61
-20 148 -9 198 26 49 34 97 119 97 172 0 141 -125 247 -260 222z m96 -135 c28
-19 48 -69 40 -101 -4 -14 -19 -37 -33 -50 -73 -67 -191 15 -153 107 17 39 46
59 90 59 20 0 45 -7 56 -15z"/>
<path d="M1720 4470 c-104 -19 -180 -113 -180 -222 0 -53 48 -138 98 -173 40
-27 51 -30 122 -30 71 0 82 3 122 30 50 35 98 120 98 173 0 141 -125 247 -260
222z m55 -127 c-11 -2 -30 -6 -42 -9 -13 -2 -22 -9 -20 -15 1 -6 -7 -13 -18
-15 -17 -2 -16 1 8 22 18 15 39 24 60 23 19 -1 24 -3 12 -6z m-30 -43 c-16
-16 -31 -28 -33 -25 -7 7 39 55 52 55 5 0 -3 -13 -19 -30z m105 -41 c0 -27 -7
-46 -26 -66 -15 -15 -21 -21 -15 -12 6 9 7 20 3 24 -4 5 -2 5 5 1 8 -4 15 2
18 17 9 34 2 82 -11 80 -6 -1 -11 5 -11 13 0 11 4 11 19 -3 11 -10 18 -30 18
-54z m-30 12 c7 -14 5 -25 -10 -44 -11 -13 -16 -28 -12 -33 4 -5 -8 4 -26 20
l-32 30 26 28 c28 29 38 29 54 -1z m-143 -38 c-3 -10 -5 -4 -5 12 0 17 2 24 5
18 2 -7 2 -21 0 -30z m58 -22 c3 -5 2 -12 -3 -15 -5 -3 -9 1 -9 9 0 17 3 19
12 6z m-27 -13 c-2 -6 15 -17 37 -25 38 -13 38 -13 6 -8 -38 6 -64 23 -55 36
8 13 14 11 12 -3z"/>
<path d="M2441 2277 c-140 -413 -256 -758 -258 -764 -4 -10 20 -13 98 -13
l104 0 254 753 c140 413 256 758 259 765 3 9 -21 12 -99 12 l-104 0 -254 -753z"/>
<path d="M1659 2516 c-213 -90 -396 -169 -408 -175 -19 -11 -21 -20 -21 -121
0 -109 0 -110 28 -124 34 -17 789 -336 796 -336 3 0 6 60 6 133 l0 132 -93 32
c-50 18 -172 60 -270 94 -98 34 -175 65 -170 69 4 4 126 49 271 101 l262 94 0
132 c0 73 -3 133 -7 133 -5 0 -182 -74 -394 -164z"/>
<path d="M3050 2548 l0 -133 268 -94 c147 -52 271 -98 276 -102 5 -4 -112 -46
-260 -94 -148 -48 -273 -90 -277 -94 -4 -4 -6 -66 -5 -138 l3 -129 412 171
c227 94 415 174 419 177 3 4 6 55 6 115 l1 108 -413 173 c-228 94 -418 172
-422 172 -4 0 -8 -60 -8 -132z"/>
</g>
</svg>
