<?xml version="1.0" encoding="UTF-8" standalone="no"?>
<svg
   xmlns:dc="http://purl.org/dc/elements/1.1/"
   xmlns:cc="http://creativecommons.org/ns#"
   xmlns:rdf="http://www.w3.org/1999/02/22-rdf-syntax-ns#"
   xmlns:svg="http://www.w3.org/2000/svg"
   xmlns="http://www.w3.org/2000/svg"
   viewBox="0 0 24 24"
   height="24"
   width="24"
   xml:space="preserve"
   id="svg2"
   version="1.1"><metadata
     id="metadata8"><rdf:RDF><cc:Work
         rdf:about=""><dc:format>image/svg+xml</dc:format><dc:type
           rdf:resource="http://purl.org/dc/dcmitype/StillImage" /></cc:Work></rdf:RDF></metadata><defs
     id="defs6" /><g
     transform="scale(1.3333333)"
     id="g10"><g
       id="g12"><path
         id="path14"
         style="fill:#000000;fill-opacity:1;fill-rule:nonzero;stroke:none"
         d="m 11.152,17.984 c -0.191,0 -0.351,-0.148 -0.371,-0.336 -0.019,-0.191 0.106,-0.367 0.293,-0.406 l 5.051,-1.051 C 15.844,14.297 14.523,5.312 14.324,3.969 14.051,3.953 13.547,3.914 13.113,3.883 13.035,3.879 12.961,3.848 12.898,3.797 L 11.574,2.699 C 11.465,2.617 11.41,2.48 11.434,2.344 c 0.019,-0.137 0.113,-0.25 0.242,-0.297 0.133,-0.043 0.277,-0.016 0.379,0.078 l 1.23,1.02 c 0.317,0.023 1.149,0.082 1.242,0.085 0.25,0 0.473,0.196 0.512,0.454 0.016,0.078 1.566,10.632 1.879,12.75 0.031,0.195 -0.098,0.378 -0.293,0.421 l -5.398,1.122 c -0.024,0.003 -0.051,0.007 -0.075,0.007 z M 14.508,3.98 h 0.012 z" /><path
         id="path16"
         style="fill:#000000;fill-opacity:1;fill-rule:nonzero;stroke:none"
         d="m 11.152,18 c -0.023,0 -0.047,-0.004 -0.07,-0.008 L 1.383,16.164 C 1.188,16.125 1.055,15.945 1.082,15.746 1.133,15.348 2.336,5.961 2.391,5.625 2.465,5.031 2.578,4.902 3.199,4.703 3.664,4.555 10.715,2.34 11.656,2.078 L 11.652,2.07 c 0.137,-0.047 0.332,-0.023 0.434,0.082 0.07,0.075 0.109,0.172 0.102,0.278 L 11.527,17.641 C 11.523,17.75 11.469,17.852 11.383,17.918 11.32,17.973 11.234,18 11.152,18 Z m -9.281,-2.508 8.926,1.684 0.621,-14.25 C 8.754,3.754 6.09,4.586 3.426,5.418 3.328,5.449 3.18,5.496 3.145,5.52 c 0.015,0 0,0.132 -0.012,0.21 -0.039,0.266 -0.821,6.305 -1.262,9.762 z M 3.312,5.062 H 3.32 Z" /><path
         id="path18"
         style="fill:#000000;fill-opacity:1;fill-rule:nonzero;stroke:none"
         d="M 6.461,15 C 4.746,15 3.867,13.914 3.832,13.867 3.754,13.77 3.73,13.645 3.766,13.527 l 0.425,-1.414 c 0.039,-0.121 0.133,-0.218 0.258,-0.254 0.121,-0.035 0.254,-0.004 0.352,0.079 0.187,0.164 0.816,0.628 1.258,0.628 0.261,0 0.269,-0.254 0.269,-0.254 0,-0.289 -0.211,-0.476 -0.582,-0.785 C 5.254,11.113 4.574,10.551 4.574,9.363 4.559,8.461 4.887,7.621 5.492,7.004 6.141,6.348 7.055,6 8.137,6 9.043,6 9.516,6.266 9.566,6.297 9.719,6.387 9.789,6.574 9.73,6.742 L 9.105,8.578 C 9.074,8.672 9.004,8.75 8.914,8.793 L 8.902,8.801 C 8.793,8.852 8.668,8.852 8.562,8.793 8.559,8.793 8.094,8.551 7.566,8.551 c -0.617,0 -0.617,0.289 -0.617,0.398 0,0.141 0.309,0.375 0.582,0.582 0.657,0.492 1.555,1.168 1.555,2.551 C 9.086,13.801 8.008,15 6.461,15 Z M 4.547,13.535 c 0.254,0.238 0.891,0.715 1.914,0.715 1.125,0 1.875,-0.871 1.875,-2.168 C 8.336,11.07 7.672,10.57 7.082,10.129 6.629,9.785 6.199,9.465 6.199,8.949 c 0,-0.554 0.36,-1.148 1.367,-1.148 0.372,0 0.711,0.082 0.954,0.168 L 8.902,6.84 C 8.652,6.777 8.395,6.746 8.137,6.75 7.262,6.75 6.531,7.02 6.027,7.531 5.562,8.004 5.312,8.652 5.324,9.359 c 0,0.84 0.438,1.207 0.903,1.594 0.398,0.328 0.851,0.703 0.851,1.359 0,0.497 -0.383,1.008 -1.019,1.008 -0.469,0 -0.961,-0.254 -1.301,-0.476 z M 8.75,8.457 H 8.758 Z M 4.805,4.984 C 4.688,4.984 4.574,4.93 4.504,4.836 4.434,4.738 4.41,4.617 4.441,4.504 4.586,4.008 5.914,-0.332 8.121,0.02 8.66,0.102 9.094,0.383 9.371,0.828 9.867,1.617 9.777,2.781 9.609,3.332 9.543,3.523 9.336,3.629 9.145,3.566 8.949,3.508 8.84,3.305 8.895,3.109 9,2.766 9.105,1.816 8.734,1.227 8.57,0.961 8.336,0.812 8.008,0.762 6.699,0.559 5.48,3.621 5.164,4.711 5.117,4.871 4.973,4.984 4.805,4.984 Z" /><path
         id="path20"
         style="fill:#000000;fill-opacity:1;fill-rule:nonzero;stroke:none"
         d="M 6.992,4.301 C 6.887,4.301 6.785,4.254 6.715,4.176 6.645,4.094 6.609,3.988 6.621,3.883 6.754,2.723 7.547,0.531 9.59,0.531 c 1.199,0 2.035,1.09 2.035,2.067 0,0.207 -0.168,0.375 -0.375,0.375 -0.207,0 -0.375,-0.168 -0.375,-0.375 0,-0.539 -0.457,-1.317 -1.285,-1.317 -1.895,0 -2.223,2.66 -2.223,2.684 C 7.344,4.156 7.184,4.297 6.992,4.301 Z" /></g></g></svg>